<?xml version="1.0" standalone="no"?>
<!DOCTYPE svg PUBLIC "-//W3C//DTD SVG 20010904//EN"
 "http://www.w3.org/TR/2001/REC-SVG-20010904/DTD/svg10.dtd">
<svg version="1.0" xmlns="http://www.w3.org/2000/svg"
 width="174.000000pt" height="141.000000pt" viewBox="0 0 174.000000 141.000000"
 preserveAspectRatio="xMidYMid meet">

<g transform="translate(0.000000,141.000000) scale(0.100000,-0.100000)"
fill="#000000" stroke="none">
<path d="M775 1066 c14 -45 17 -69 9 -64 -5 3 -39 2 -75 -3 -63 -9 -73 -7
-165 26 -54 19 -99 33 -101 31 -2 -2 1 -14 6 -28 6 -17 5 -56 -5 -118 -7 -52
-13 -95 -11 -95 9 -8 77 -12 77 -6 0 15 58 33 81 26 12 -4 32 -17 43 -30 12
-12 33 -25 48 -29 35 -8 44 8 60 106 10 64 30 110 42 97 2 -2 1 -39 -3 -81
l-6 -76 35 -5 c24 -3 43 2 59 15 34 26 89 23 121 -7 14 -13 40 -28 58 -31 31
-6 32 -5 38 35 13 84 21 46 20 -106 -1 -141 -3 -156 -18 -159 -10 -1 -21 3
-25 10 -10 16 -56 27 -107 26 -21 -1 -49 6 -63 16 -14 9 -22 11 -18 4 6 -10
-9 -11 -67 -6 l-76 7 -10 -30 c-12 -33 -26 -39 -39 -17 -4 7 -40 18 -82 24
-41 6 -78 17 -82 24 -6 9 -11 10 -19 2 -7 -7 -26 -8 -53 -3 -64 12 -67 11 -81
-22 l-13 -31 -92 0 c-73 -1 -94 -4 -99 -16 -10 -28 37 -54 90 -50 48 3 48 3
48 -28 0 -31 16 -61 37 -66 7 -2 21 13 31 32 27 50 97 84 152 75 46 -8 93 -43
116 -86 l15 -29 263 0 264 0 12 31 c17 40 67 77 115 84 55 8 123 -27 150 -77
21 -41 44 -48 69 -22 12 12 16 37 16 108 0 114 -14 164 -76 264 -107 173 -147
202 -274 202 l-83 0 24 26 24 27 -65 -8 c-100 -13 -138 -9 -233 22 -86 29 -88
29 -82 9z m70 -140 c0 -26 -3 -32 -12 -24 -16 13 -16 31 -1 46 7 7 12 12 13
12 0 0 0 -15 0 -34z m62 -1 c-2 -42 -17 -47 -17 -7 0 25 7 42 17 42 1 0 2 -16
0 -35z m59 -43 c-13 -12 -17 8 -10 40 l9 33 3 -33 c2 -19 1 -36 -2 -40z m29
27 c0 -16 -3 -29 -7 -29 -4 0 -7 16 -6 35 1 42 13 36 13 -6z m-493 0 c-3 -20
-8 -27 -14 -21 -11 11 -2 52 11 52 4 0 6 -14 3 -31z m58 -6 c0 -23 -4 -33 -9
-27 -9 8 -4 64 5 64 2 0 4 -17 4 -37z m467 15 c-4 -12 -1 -29 6 -37 10 -11 9
-13 -3 -9 -18 6 -27 68 -9 68 7 0 9 -9 6 -22z m252 7 c35 -18 98 -88 129 -144
l23 -41 -135 0 -136 0 0 100 0 100 45 0 c26 0 59 -7 74 -15z m-664 -42 c-9
-37 -18 -20 -9 19 4 18 9 27 11 20 3 -7 2 -24 -2 -39z m317 15 c-8 -8 -9 -4
-5 13 4 13 8 18 11 10 2 -7 -1 -18 -6 -23z m-290 -13 c-6 -34 -12 -32 -12 6 0
16 4 28 9 25 4 -3 6 -17 3 -31z m30 -1 c-4 -23 -2 -26 12 -21 10 4 15 3 11 -3
-15 -24 -35 -9 -35 26 0 19 4 33 9 30 4 -3 6 -18 3 -32z m208 26 c0 -5 -4 -10
-10 -10 -5 0 -10 5 -10 10 0 6 5 10 10 10 6 0 10 -4 10 -10z m-353 -22 c-3 -8
-6 -5 -6 6 -1 11 2 17 5 13 3 -3 4 -12 1 -19z"/>
<path d="M457 762 c-15 -16 -15 -19 3 -30 11 -7 20 -21 20 -32 0 -12 5 -17 14
-14 9 4 13 -2 11 -20 -4 -33 3 -33 15 -1 5 14 14 25 20 25 6 0 9 -4 5 -9 -17
-29 51 -15 84 17 19 18 2 33 -44 39 -21 3 -53 14 -72 24 -41 23 -36 23 -56 1z"/>
<path d="M824 759 c-9 -10 -14 -22 -11 -26 4 -3 7 -3 7 1 0 4 7 1 15 -8 8 -8
15 -22 15 -31 0 -9 4 -14 9 -11 5 3 12 -6 16 -22 l8 -27 6 24 c4 14 12 26 19
29 7 2 11 0 10 -5 -8 -22 54 -9 77 17 16 17 15 19 -4 29 -11 6 -33 11 -50 11
-17 0 -46 9 -65 19 -34 19 -34 19 -52 0z"/>
<path d="M458 476 c-39 -13 -78 -67 -78 -108 0 -72 61 -125 132 -115 98 13
137 127 67 196 -32 33 -74 42 -121 27z m84 -63 c35 -32 18 -92 -33 -108 -20
-7 -69 17 -69 34 0 5 -2 16 -5 23 -3 8 4 26 15 41 25 31 64 36 92 10z"/>
<path d="M1293 478 c-79 -21 -111 -127 -55 -188 52 -59 152 -48 187 20 48 92
-32 195 -132 168z m77 -68 c11 -11 20 -29 20 -40 0 -24 -42 -70 -63 -70 -26 0
-67 41 -67 66 0 31 33 64 65 64 14 0 34 -9 45 -20z"/>
<path d="M280 138 l0 -103 600 0 600 0 0 103 0 102 -600 0 -600 0 0 -102z
m127 45 c19 -24 6 -33 -27 -20 -36 14 -55 0 -45 -32 7 -24 26 -27 55 -9 23 14
33 8 24 -16 -8 -20 -45 -30 -79 -22 -28 7 -41 41 -31 81 11 44 74 54 103 18z
m115 -41 l25 -58 -63 0 -62 0 24 54 c13 30 24 56 24 58 0 2 6 4 13 4 8 0 25
-26 39 -58z m218 43 c0 -8 -7 -15 -15 -15 -11 0 -15 -12 -15 -46 0 -38 -3 -45
-17 -42 -14 2 -18 13 -18 43 0 42 -14 56 -47 47 -14 -3 -18 -15 -18 -48 0 -32
-4 -44 -15 -44 -11 0 -15 12 -15 45 0 33 -4 45 -15 45 -8 0 -15 7 -15 15 0 11
19 14 95 14 76 0 95 -3 95 -14z m50 -30 c0 -38 3 -45 20 -45 11 0 20 -7 20
-15 0 -11 -11 -15 -40 -15 l-40 0 0 60 c0 53 2 60 20 60 17 0 20 -7 20 -45z
m130 30 c0 -8 -10 -16 -22 -16 l-23 -2 23 -4 c27 -5 29 -33 2 -33 -27 0 -25
-18 3 -22 38 -5 24 -23 -20 -26 l-43 -3 0 60 0 61 40 0 c29 0 40 -4 40 -15z
m168 3 c20 -20 13 -27 -25 -25 -34 2 -38 0 -38 -23 0 -20 5 -25 25 -27 14 -1
18 0 8 3 -10 3 -18 12 -18 20 0 11 9 14 33 12 26 -2 31 -7 29 -23 -6 -32 -22
-45 -58 -45 -34 0 -64 28 -64 60 0 9 7 26 16 38 17 25 71 31 92 10z m62 -34
c0 -38 3 -45 18 -42 12 2 18 15 20 46 2 28 8 42 18 42 18 0 20 -90 2 -108 -15
-15 -61 -15 -76 0 -18 18 -16 108 3 108 11 0 15 -12 15 -46z m184 24 c8 -13 8
-23 -1 -36 -7 -12 -8 -24 -2 -33 13 -21 11 -29 -10 -29 -10 0 -21 7 -25 15 -7
19 -26 19 -26 0 0 -8 -7 -15 -15 -15 -12 0 -15 13 -15 61 l0 60 41 -3 c27 -2
46 -9 53 -20z m56 -23 c0 -33 4 -45 15 -45 11 0 15 12 15 45 0 38 3 45 20 45
17 0 20 -7 20 -41 0 -55 -15 -79 -48 -79 -40 0 -52 17 -52 72 0 36 4 48 15 48
11 0 15 -12 15 -45z"/>
<path d="M1270 160 c0 -5 7 -10 15 -10 8 0 15 5 15 10 0 6 -7 10 -15 10 -8 0
-15 -4 -15 -10z"/>
</g>
</svg>
